<svg width="46" height="46" viewBox="0 0 46 46" fill="none" xmlns="http://www.w3.org/2000/svg">
<g id="Icon Balance">
<g id="Group 12">
<path id="Ellipse 7" d="M31.9999 35.002C31.9999 38.4814 29.1793 41.302 25.6999 41.302C22.2205 41.302 19.3999 38.4814 19.3999 35.002C19.3999 31.5226 22.2205 28.702 25.6999 28.702C29.1793 28.702 31.9999 31.5226 31.9999 35.002Z" fill="#6059BF"/>
<path id="Ellipse 8" d="M24.9998 12.252C24.9998 16.3113 21.7091 19.602 17.6498 19.602C13.5905 19.602 10.2998 16.3113 10.2998 12.252C10.2998 8.19268 13.5905 4.90198 17.6498 4.90198C21.7091 4.90198 24.9998 8.19268 24.9998 12.252Z" fill="white"/>
<path id="Rectangle 5" d="M4.02481 28.8996C3.62458 27.4059 4.51101 25.8705 6.00471 25.4703L38.4598 16.774C39.9535 16.3737 41.4889 17.2602 41.8891 18.7539C42.2893 20.2476 41.4029 21.7829 39.9092 22.1831L7.4541 30.8795C5.96039 31.2797 4.42505 30.3933 4.02481 28.8996Z" fill="#AFACDF"/>
</g>
</g>
</svg>
