<svg width="46" height="46" viewBox="0 0 46 46" fill="none" xmlns="http://www.w3.org/2000/svg">
<g id="Icon Dashboard apps">
<g id="Group 2">
<path id="Rectangle 1" d="M6.1001 28.702C6.1001 27.1556 7.3537 25.902 8.9001 25.902H17.3001C18.8465 25.902 20.1001 27.1556 20.1001 28.702V37.102C20.1001 38.6484 18.8465 39.902 17.3001 39.902H8.9001C7.3537 39.902 6.1001 38.6484 6.1001 37.102V28.702Z" fill="#6059BF"/>
<path id="Rectangle 1_2" d="M4.7002 11.9021C4.7002 10.3557 5.9538 9.10205 7.5002 9.10205H17.3002C18.8466 9.10205 20.1002 10.3557 20.1002 11.9021V21.7021C20.1002 23.2484 18.8466 24.5021 17.3002 24.5021H7.5002C5.9538 24.5021 4.7002 23.2484 4.7002 21.7021V11.9021Z" fill="#AFACDF"/>
<path id="Rectangle 1_3" d="M21.5 28.702C21.5 27.1556 22.7536 25.902 24.3 25.902H34.1C35.6464 25.902 36.9 27.1556 36.9 28.702V38.502C36.9 40.0484 35.6464 41.302 34.1 41.302H24.3C22.7536 41.302 21.5 40.0484 21.5 38.502V28.702Z" fill="#AFACDF"/>
<path id="Rectangle 1_4" d="M21.5 7.70198C21.5 6.15558 22.7536 4.90198 24.3 4.90198H38.3C39.8464 4.90198 41.1 6.15558 41.1 7.70198V21.702C41.1 23.2484 39.8464 24.502 38.3 24.502H24.3C22.7536 24.502 21.5 23.2484 21.5 21.702V7.70198Z" fill="white"/>
</g>
</g>
</svg>
