<svg width="72" height="72" viewBox="0 0 72 72" fill="none" xmlns="http://www.w3.org/2000/svg">
<g id="ibm" clip-path="url(#clip0_341_1662)">
<g id="ibm_2">
<path d="M0.563965 24.2823V26.3569H14.0206V24.2823H0.563965Z" fill="#10069F"/>
<path d="M0.563965 22.2078H14.0206V20.1332H0.563965V22.2078Z" fill="#10069F"/>
<path d="M15.943 24.2823V26.3569H38.8785C38.7454 25.6227 38.5158 24.9259 38.2045 24.2823H15.943Z" fill="#10069F"/>
<path d="M36.7413 22.2078H15.943V20.1332H31.8644C33.7495 20.1332 35.4642 20.9208 36.7413 22.2078Z" fill="#10069F"/>
<path d="M40.934 24.2823V26.3569H54.1161L53.5668 24.2823H40.934Z" fill="#10069F"/>
<path d="M53.0176 22.2078H40.934V20.1332H52.4683L53.0176 22.2078Z" fill="#10069F"/>
<path d="M59.0593 24.2823L58.5101 26.3569H71.6921V24.2823H59.0593Z" fill="#10069F"/>
<path d="M71.6921 22.2078H59.6086L60.1578 20.1332H71.6921V22.2078Z" fill="#10069F"/>
<path d="M67.8474 28.4315H57.9608L57.4116 30.506H67.8474V28.4315Z" fill="#10069F"/>
<path d="M67.8474 32.5806H62.0802H56.8623L56.3131 34.6552L55.7638 32.5806H50.5459H44.7788V34.6552H50.5459V32.5806L51.1867 34.6552H56.3131H61.4394L62.0802 32.5806V34.6552H67.8474V32.5806Z" fill="#10069F"/>
<path d="M67.8474 36.7297H62.0802V38.8043H67.8474V36.7297Z" fill="#10069F"/>
<path d="M67.8474 40.8789H62.0802V42.9535H67.8474V40.8789Z" fill="#10069F"/>
<path d="M71.6921 45.028H62.0802V47.1026H71.6921V45.028Z" fill="#10069F"/>
<path d="M71.6921 49.1772H62.0802V51.2517H71.6921V49.1772Z" fill="#10069F"/>
<path d="M0.563965 51.2517H14.0206V49.1772H0.563965V51.2517Z" fill="#10069F"/>
<path d="M0.563965 47.1026H14.0206V45.028H0.563965V47.1026Z" fill="#10069F"/>
<path d="M4.40873 42.9535H10.1759V40.8789H4.40873V42.9535Z" fill="#10069F"/>
<path d="M4.40873 38.8043H10.1759V36.7297H4.40873V38.8043Z" fill="#10069F"/>
<path d="M4.40873 34.6552H10.1759V32.5806H4.40873V34.6552Z" fill="#10069F"/>
<path d="M4.40873 30.506H10.1759V28.4315H4.40873V30.506Z" fill="#10069F"/>
<path d="M19.7878 28.4315V30.506H25.5549V28.4315H19.7878Z" fill="#10069F"/>
<path d="M32.2833 28.4315V30.506H38.5744C38.7979 29.85 38.9408 29.1536 38.9913 28.4315H32.2833Z" fill="#10069F"/>
<path d="M44.7788 28.4315V30.506H55.2146L54.6653 28.4315H44.7788Z" fill="#10069F"/>
<path d="M37.5069 32.5806H19.7878V34.6552H35.2244C36.1174 34.1416 36.8936 33.4313 37.5069 32.5806Z" fill="#10069F"/>
<path d="M35.2244 36.7297H19.7878V38.8043H37.5069C36.8936 37.9537 36.1174 37.2433 35.2244 36.7297Z" fill="#10069F"/>
<path d="M38.5744 40.8789H31.3221V42.9535H38.9913C38.9408 42.2313 38.7979 41.5349 38.5744 40.8789Z" fill="#10069F"/>
<path d="M44.7788 42.9535V40.8789H50.5459V42.9535H44.7788Z" fill="#10069F"/>
<path d="M50.5459 45.028H40.934V47.1026H50.5459V45.028Z" fill="#10069F"/>
<path d="M55.0315 47.1026L54.3907 45.028H58.2354L57.5947 47.1026H55.0315Z" fill="#10069F"/>
<path d="M50.5459 49.1772H40.934V51.2517H50.5459V49.1772Z" fill="#10069F"/>
<path d="M31.8644 51.2517C33.7495 51.2517 35.4642 50.4641 36.7413 49.1772H15.943V51.2517H31.8644Z" fill="#10069F"/>
<path d="M15.943 47.1026H38.2045C38.5158 46.459 38.7454 45.7622 38.8785 45.028H15.943V47.1026Z" fill="#10069F"/>
<path d="M19.7878 42.9535H25.5549V40.8789H19.7878V42.9535Z" fill="#10069F"/>
<path d="M55.6723 49.1772H56.9539L56.3131 51.2517L55.6723 49.1772Z" fill="#10069F"/>
<path d="M58.8762 42.9535H53.7499L53.1091 40.8789H59.517L58.8762 42.9535Z" fill="#10069F"/>
<path d="M60.1578 38.8043L60.7986 36.7297H51.8275L52.4683 38.8043H60.1578Z" fill="#10069F"/>
<path d="M50.5459 38.8043H44.7788V36.7297H50.5459V38.8043Z" fill="#10069F"/>
</g>
</g>
<defs>
<clipPath id="clip0_341_1662">
<rect width="71.1282" height="71.1282" fill="white" transform="translate(0.563965 0.128174)"/>
</clipPath>
</defs>
</svg>
