<svg width="214" height="36" viewBox="0 0 214 36" fill="none" xmlns="http://www.w3.org/2000/svg">
<g id="Group">
<path id="Vector" d="M4.24542 35.0128V18.095H0.0770264V13.2079H1.37069C3.09553 13.2079 4.43708 12.3455 4.43708 10.6207V9.51868C4.43708 3.62548 8.65333 0.51123 14.0674 0.51123H15.0256V6.11693H14.2591C12.0072 6.11693 10.2344 7.55433 10.2344 10.2853V12.9684H15.7443V18.095H10.2344V35.0128H4.24542Z" fill="white"/>
<path id="Vector_2" d="M17.2775 35.0126V12.9682H22.8833V15.5555C24.0811 13.5911 26.4767 12.6328 28.9681 12.6328H30.645V18.3344H28.2973C24.9914 18.3344 23.1707 20.3946 23.1707 23.7006V35.0078H17.2775V35.0126Z" fill="white"/>
<path id="Vector_3" d="M30.7456 23.9877C30.7456 17.6633 35.7764 12.4409 42.7716 12.4409C49.7668 12.4409 54.7975 17.6633 54.7975 23.9877C54.7975 30.3121 49.8147 35.5345 42.7716 35.5345C35.7285 35.5345 30.7456 30.36 30.7456 23.9877ZM48.5738 23.9877C48.5738 20.7297 46.1782 18.1424 42.7764 18.0945C39.3746 18.1424 36.979 20.7297 36.979 23.9877C36.979 27.2458 39.3746 29.833 42.7764 29.8809C46.1782 29.833 48.5738 27.2937 48.5738 23.9877Z" fill="white"/>
<path id="Vector_4" d="M54.0836 35.0126L64.0493 18.2386H54.946V12.9683H73.6365L63.9583 29.5985H73.1095V35.0126H54.0836Z" fill="white"/>
<path id="Vector_5" d="M73.1574 23.9877C73.1574 17.8071 77.9487 12.4409 85.1355 12.4409C92.3223 12.4409 97.3531 17.9987 96.6823 25.7174H79.525C80.1958 28.4004 82.4476 29.9815 85.2265 30.0294C87.4305 29.9815 89.3949 28.9754 90.401 27.2505L95.1443 30.6044C93.0362 33.5749 89.4907 35.5393 85.2265 35.5393C78.0876 35.5393 73.1526 30.2211 73.1526 23.9925L73.1574 23.9877ZM90.6023 21.6879C89.9794 19.6277 87.9671 17.855 85.1403 17.8071C82.3135 17.855 80.3491 19.484 79.6783 21.6879H90.6023Z" fill="white"/>
<path id="Vector_6" d="M98.6516 35.0123V12.9679H104.353V14.7407C105.263 13.6866 107.228 12.4409 110.15 12.4409C115.181 12.4409 118.87 16.178 118.87 21.0171V35.0123H112.881V22.2629C112.881 19.8673 111.492 17.9508 108.809 17.9508C106.413 17.9508 104.641 19.7236 104.641 22.5025V35.0075H98.6516V35.0123Z" fill="white"/>
<path id="Vector_7" d="M131.625 35.3C126.402 35.3 123.48 32.6648 123.48 27.4903V18.0995H119.742V13.6438H119.886C122.473 13.6438 124.869 11.296 124.869 7.79844V7.70264H129.469V12.973H135.745V18.0995H129.469V26.6279C129.469 29.0235 130.906 29.838 132.727 29.838H135.745V35.3H131.625Z" fill="white"/>
<path id="Vector_8" d="M138.141 35.0126V12.9682H143.746V15.5555C144.944 13.5911 147.34 12.6328 149.831 12.6328H151.508V18.3344H149.16C145.855 18.3344 144.034 20.3946 144.034 23.7006V35.0078H138.141V35.0126Z" fill="white"/>
<path id="Vector_9" d="M151.848 28.2998C151.848 24.4669 154.915 21.9754 159.227 21.9754H164.018C165.168 21.9754 165.887 21.3525 165.887 20.2985C165.887 19.2444 164.497 17.7113 161.67 17.7113C159.227 17.7113 157.646 19.0528 156.879 20.6818L152.567 17.9029C153.956 14.9323 157.167 12.4409 161.67 12.4409C168.426 12.4409 171.684 17.1363 171.684 21.6879V35.0075H166.126V33.4743C165.216 34.4805 163.299 35.5345 160.329 35.5345C155.058 35.5345 151.848 32.2765 151.848 28.2998ZM165.844 26.575V26.2875H160.334C158.944 26.2875 157.986 27.1499 157.986 28.4435C157.986 29.7372 159.136 30.7433 161.148 30.7433C164.071 30.7433 165.844 28.8748 165.844 26.575Z" fill="white"/>
<path id="Vector_10" d="M174.611 35.0123V12.9679H180.313V14.7407C181.223 13.6866 183.188 12.4409 186.11 12.4409C191.141 12.4409 194.83 16.178 194.83 21.0171V35.0123H188.841V22.2629C188.841 19.8673 187.452 17.9508 184.769 17.9508C182.373 17.9508 180.6 19.7236 180.6 22.5025V35.0075H174.611V35.0123Z" fill="white"/>
<path id="Vector_11" d="M196.943 29.9288L202.166 27.9644C202.645 29.3539 203.891 30.2163 205.424 30.2163C207.101 30.2163 208.107 29.5455 208.107 28.4435C208.107 27.3415 207.196 26.7187 205.52 26.4312C201.064 25.7126 197.614 23.9877 197.614 19.1965C197.614 15.6031 200.585 12.4409 205.567 12.4409C209.88 12.4409 212.419 14.7407 213.281 17.6154L208.251 19.2923C207.915 18.1903 206.957 17.5196 205.567 17.5196C204.178 17.5196 203.363 18.2383 203.363 19.1486C203.363 20.2506 204.274 20.7776 205.951 21.0651C211.748 21.9754 214 24.4189 214 28.1561C214 32.2286 210.981 35.5345 205.328 35.5345C200.489 35.5345 197.854 32.8994 196.943 29.9288Z" fill="white"/>
</g>
</svg>
