<svg width="152" height="49" viewBox="0 0 152 49" fill="none" xmlns="http://www.w3.org/2000/svg">
<g id="Group">
<g id="Group_2">
<path id="Vector" d="M59.6883 18.5629C59.6883 18.5017 59.6488 18.4478 59.5913 18.4298C56.6394 17.5489 53.8242 15.9382 51.7353 13.6875C50.9227 12.8102 49.9052 11.6705 48.7727 11.6561H48.3665C48.4096 11.4764 48.4347 11.2894 48.4347 11.0952C48.4347 9.75054 47.3453 8.66113 46.0007 8.66113C44.656 8.66113 43.5666 9.75054 43.5666 11.0952C43.5666 11.2822 43.5917 11.4656 43.6313 11.6417H43.581C32.4101 11.6525 16.8672 14.2448 8.61576 23.2189C2.56471 29.802 -0.538115 36.7088 0.0766976 47.984H9.79866C10.809 41.1348 14.4942 38.183 14.6344 38.1003C14.1059 40.2503 13.6637 43.8745 14.0627 47.984L24.7195 48.0055C28.2502 32.3224 41.0929 21.6836 59.5589 21.7843C59.6344 21.7843 59.6991 21.7232 59.6991 21.6441V18.5593L59.6883 18.5629Z" fill="white"/>
<path id="Vector_2" d="M43.6276 26.6094C36.8611 30.2192 30.4469 39.3551 29.1489 47.9697H53.932C53.932 40.6854 50.804 31.9917 43.6276 26.6094Z" fill="white"/>
</g>
<g id="Group_3">
<path id="Vector_3" d="M65.6319 25.8904V13.1952H62.5039V9.52779H63.4746C64.769 9.52779 65.7757 8.88066 65.7757 7.58632V6.75936C65.7757 2.33702 68.9396 0 73.0024 0H73.7215V4.20668H73.1462C71.4564 4.20668 70.1261 5.28528 70.1261 7.33466V9.34803H74.2608V13.1952H70.1261V25.8904H65.6319Z" fill="white"/>
<path id="Vector_4" d="M75.4146 25.8903V9.34785H79.6211V11.2894C80.52 9.81531 82.3177 9.09619 84.1873 9.09619H85.4457V13.3748H83.684C81.2031 13.3748 79.8369 14.9208 79.8369 17.4016V25.8867H75.4146V25.8903Z" fill="white"/>
<path id="Vector_5" d="M85.5176 17.6209C85.5176 12.875 89.2928 8.95605 94.5421 8.95605C99.7913 8.95605 103.567 12.875 103.567 17.6209C103.567 22.3668 99.8273 26.2858 94.5421 26.2858C89.2568 26.2858 85.5176 22.4028 85.5176 17.6209ZM98.8961 17.6209C98.8961 15.176 97.0984 13.2346 94.5457 13.1986C91.9929 13.2346 90.1952 15.176 90.1952 17.6209C90.1952 20.0658 91.9929 22.0073 94.5457 22.0433C97.0984 22.0073 98.8961 20.1017 98.8961 17.6209Z" fill="white"/>
<path id="Vector_6" d="M103.031 25.8903L110.509 13.3028H103.678V9.3479H117.703L110.441 21.8276H117.308V25.8903H103.031Z" fill="white"/>
<path id="Vector_7" d="M117.344 17.6209C117.344 12.9828 120.939 8.95605 126.332 8.95605C131.726 8.95605 135.501 13.1267 134.997 18.9189H122.122C122.626 20.9323 124.315 22.1188 126.401 22.1547C128.055 22.1188 129.529 21.3637 130.284 20.0694L133.843 22.5862C132.261 24.8153 129.601 26.2894 126.401 26.2894C121.044 26.2894 117.34 22.2985 117.34 17.6245L117.344 17.6209ZM130.435 15.8952C129.967 14.3492 128.457 13.0188 126.336 12.9829C124.215 13.0188 122.741 14.2413 122.237 15.8952H130.435Z" fill="white"/>
<path id="Vector_8" d="M136.479 25.8902V9.34783H140.757V10.6782C141.441 9.88721 142.915 8.95239 145.108 8.95239C148.883 8.95239 151.652 11.7568 151.652 15.3881V25.8902H147.157V16.323C147.157 14.5253 146.115 13.0871 144.101 13.0871C142.304 13.0871 140.973 14.4174 140.973 16.5027V25.8866H136.479V25.8902Z" fill="white"/>
<path id="Vector_9" d="M71.672 48.1387C67.753 48.1387 65.5598 46.1612 65.5598 42.2782V35.2313H62.7554V31.8875H62.8633C64.8048 31.8875 66.6024 30.1258 66.6024 27.5012V27.4292H70.054V31.3841H74.764V35.2313H70.054V41.631C70.054 43.4287 71.1326 44.04 72.4988 44.04H74.764V48.1387H71.672Z" fill="white"/>
<path id="Vector_10" d="M76.5654 47.923V31.3806H80.772V33.3221C81.6709 31.848 83.4686 31.1289 85.3382 31.1289H86.5965V35.4075H84.8348C82.354 35.4075 80.9878 36.9535 80.9878 39.4343V47.9194H76.5654V47.923Z" fill="white"/>
<path id="Vector_11" d="M86.8516 42.8895C86.8516 40.0132 89.1526 38.1436 92.3884 38.1436H95.9838C96.8467 38.1436 97.386 37.6762 97.386 36.8852C97.386 36.0942 96.3434 34.9437 94.2221 34.9437C92.3885 34.9437 91.202 35.9504 90.6267 37.1728L87.3909 35.0875C88.4335 32.8583 90.8425 30.9888 94.2221 30.9888C99.2916 30.9888 101.736 34.5123 101.736 37.9279V47.923H97.5658V46.7725C96.8826 47.5275 95.4445 48.3186 93.2154 48.3186C89.2605 48.3186 86.8516 45.8736 86.8516 42.8895ZM97.3537 41.5952V41.3794H93.219C92.1763 41.3794 91.4572 42.0266 91.4572 42.9974C91.4572 43.9681 92.3201 44.7232 93.8302 44.7232C96.0234 44.7232 97.3537 43.321 97.3537 41.5952Z" fill="white"/>
<path id="Vector_12" d="M103.93 47.923V31.3805H108.208V32.7109C108.891 31.9199 110.365 30.9851 112.559 30.9851C116.334 30.9851 119.102 33.7895 119.102 37.4208V47.923H114.608V38.3557C114.608 36.558 113.565 35.1198 111.552 35.1198C109.754 35.1198 108.424 36.4501 108.424 38.5354V47.9194H103.93V47.923Z" fill="white"/>
<path id="Vector_13" d="M120.691 44.112L124.61 42.6378C124.97 43.6805 125.905 44.3276 127.055 44.3276C128.314 44.3276 129.069 43.8243 129.069 42.9974C129.069 42.1704 128.386 41.703 127.127 41.4873C123.783 40.948 121.195 39.6536 121.195 36.0582C121.195 33.3617 123.424 30.9888 127.163 30.9888C130.399 30.9888 132.305 32.7146 132.952 34.8718L129.177 36.1302C128.925 35.3033 128.206 34.7998 127.163 34.7998C126.12 34.7998 125.509 35.3392 125.509 36.0223C125.509 36.8493 126.192 37.2448 127.451 37.4605C131.801 38.1436 133.491 39.9773 133.491 42.7817C133.491 45.8378 131.226 48.3186 126.983 48.3186C123.352 48.3186 121.375 46.3411 120.691 44.112Z" fill="white"/>
</g>
</g>
</svg>
