<svg width="72" height="72" viewBox="0 0 72 72" fill="none" xmlns="http://www.w3.org/2000/svg">
<g id="dell">
<g id="dell_2">
<path fill-rule="evenodd" clip-rule="evenodd" d="M33.8674 28.175C33.6452 28.0292 33.423 27.8835 33.202 27.7366C32.2693 28.3358 31.3395 28.9376 30.4098 29.5395C28.6605 30.6718 26.9114 31.804 25.1437 32.9177C24.506 30.9851 23.1313 29.4331 21.1925 28.829C19.8245 28.4029 18.128 28.4585 16.3737 28.516C15.3159 28.5507 14.2371 28.5861 13.1966 28.5169V41.5322C14.2618 41.4826 15.32 41.5127 16.3455 41.5419C17.4499 41.5733 18.5164 41.6037 19.5124 41.5322C22.5922 41.3107 24.4535 39.436 25.2372 36.944C26.5568 37.8074 27.8542 38.6932 29.1516 39.5791C30.5139 40.5092 31.8761 41.4394 33.2642 42.3436C34.1562 41.7727 35.0539 41.1881 35.9527 40.6026C37.6763 39.4801 39.4042 38.3547 41.1044 37.3184V41.5322H49.9095V37.3809C49.3886 37.373 48.8557 37.3772 48.3227 37.3814C47.455 37.3882 46.5872 37.395 45.7714 37.3499V28.5169H41.1044V32.9491C40.527 33.3185 39.951 33.6893 39.375 34.0602C37.835 35.0518 36.2949 36.0434 34.7264 37.0065C34.6036 36.9261 34.4755 36.851 34.3475 36.7759C34.1222 36.6438 33.8969 36.5117 33.6999 36.351C34.5823 35.7789 35.4554 35.1976 36.3285 34.6162C37.5186 33.8238 38.7088 33.0313 39.9224 32.2624C39.0533 31.6048 38.1262 31.0055 37.1844 30.4208C35.2469 31.6646 33.302 32.9006 31.357 34.1367C31.1942 34.2401 31.0314 34.3436 30.8686 34.4471C30.7098 34.3253 30.5402 34.2144 30.3705 34.1036C30.2011 33.9929 30.0316 33.8821 29.873 33.7605C30.7421 33.2049 31.606 32.6443 32.47 32.0837C33.6841 31.2958 34.8983 30.5079 36.1265 29.7342C35.4047 29.1832 34.636 28.6791 33.8674 28.175ZM17.6456 37.381V32.6993C17.6429 32.6551 17.6406 32.6109 17.6766 32.6057C19.024 32.5191 19.9949 32.6587 20.57 33.3235C21.4318 34.3199 21.2351 36.1899 20.2589 36.9442C19.6672 37.4015 18.9214 37.3937 17.9652 37.3838C17.8612 37.3827 17.7546 37.3816 17.6456 37.381Z" fill="#10069F"/>
<path d="M55.7894 28.5169H51.1226C51.0864 28.5221 51.0888 28.566 51.0912 28.6101L51.0912 41.5323H59.8962V37.381H55.7894V28.5169Z" fill="#10069F"/>
<path fill-rule="evenodd" clip-rule="evenodd" d="M37.0284 4.70215H35.0995C25.7789 5.21692 19.0198 8.81667 14.0677 13.785C9.1382 18.7302 5.4519 25.4054 4.98278 34.822C4.98801 34.8583 4.97608 34.8776 4.95166 34.8844V36.7571C5.44157 46.2098 9.10788 52.8162 14.0675 57.8252C19.0272 62.8346 25.7181 66.4073 35.0995 66.9392H36.9973C46.5654 66.4669 52.9041 62.7553 58.0604 57.8566C62.9689 52.6994 66.6999 46.3609 67.1762 36.7571V34.8844C66.6863 25.4318 63.0202 18.8253 58.0604 13.8162C53.1007 8.80711 46.411 5.23293 37.0284 4.70215ZM23.9924 11.0382C25.495 10.2927 27.1529 9.6621 29.0015 9.1655C30.864 8.66513 32.9051 8.39489 35.0688 8.29154C39.4699 8.08132 43.5793 9.0612 46.736 10.3828C49.9894 11.7449 52.7502 13.6294 55.043 15.8448C59.6766 20.3223 63.1877 26.1938 63.5987 34.8531C63.8159 39.4242 62.8114 43.1977 61.4831 46.4641C58.8566 52.9214 54.1177 57.6013 48.1046 60.6345C45.0365 62.182 41.3333 63.1457 37.0597 63.3499C32.6043 63.5628 28.6478 62.6129 25.4548 61.2588C18.9978 58.5204 14.3321 54.0147 11.2674 47.8998C9.71558 44.8029 8.7332 41.1697 8.5297 36.8507C8.20693 29.9999 10.4357 24.7753 13.0098 20.714C15.647 16.5531 19.4187 13.3071 23.9924 11.0382Z" fill="#10069F"/>
</g>
</g>
</svg>
