<svg width="1524" height="276" viewBox="0 0 1524 276" fill="none" xmlns="http://www.w3.org/2000/svg">
<g filter="url(#filter0_d_702_30)">
<g clip-path="url(#clip0_702_30)">
<path d="M299.228 122.656C253.448 147.127 210.031 209.051 201.252 267.437H368.959C368.959 218.062 347.782 159.134 299.228 122.656Z" fill="white"/>
</g>
<g clip-path="url(#clip1_702_30)">
<path d="M407.912 67.114C407.912 66.7015 407.63 66.3323 407.24 66.2238C387.276 60.2528 368.201 49.3313 354.09 34.0672C348.584 28.118 341.691 20.3882 334.04 20.3014H331.287C331.569 19.0638 331.742 17.8044 331.742 16.5017C331.742 7.38232 324.372 0 315.268 0C306.164 0 298.794 7.38232 298.794 16.5017C298.794 17.7827 298.946 19.0203 299.228 20.1928H298.903C223.297 20.258 118.125 37.8235 62.2873 98.6626C21.3413 143.282 0.358911 190.117 4.52071 266.545H70.3075C77.1571 220.102 102.063 200.104 103.038 199.54C99.4834 214.109 96.4704 238.688 99.1799 266.545L171.274 266.697C195.161 160.392 282.061 88.2622 407.023 88.9787C407.543 88.9787 407.977 88.5662 407.977 88.0451V67.1357L407.912 67.114Z" fill="white"/>
</g>
<path d="M826.022 214.328C826.022 186.318 847.698 162 880.212 162C912.726 162 935.486 187.187 932.451 222.166H854.829C857.864 234.325 868.051 241.49 880.624 241.707C890.595 241.49 899.482 236.931 904.034 229.114L925.493 244.313C915.956 257.775 899.915 266.677 880.624 266.677C848.326 266.677 826 242.576 826 214.349L826.022 214.328ZM904.944 203.905C902.126 194.569 893.022 186.535 880.233 186.318C867.445 186.535 858.557 193.918 855.523 203.905H904.944Z" fill="white"/>
<path d="M949.722 267.289V167.388H975.516V175.422C979.635 170.645 988.522 165 1001.74 165C1024.5 165 1041.19 181.936 1041.19 203.866V267.289H1014.1V209.511C1014.1 198.655 1007.81 189.97 995.675 189.97C984.837 189.97 976.817 198.003 976.817 210.597V267.267H949.722V267.289Z" fill="white"/>
<path d="M1111.95 267.065C1088.32 267.065 1075.1 255.123 1075.1 231.673V189.117H1058.19V168.924H1058.84C1070.55 168.924 1081.39 158.284 1081.39 142.434V142H1102.2V165.884H1130.59V189.117H1102.2V227.765C1102.2 238.622 1108.7 242.313 1116.94 242.313H1130.59V267.065H1111.95Z" fill="white"/>
<path d="M1147.59 267.42V167.52H1172.95V179.245C1178.37 170.343 1189.21 166 1200.48 166H1208.07V191.838H1197.45C1182.49 191.838 1174.25 201.175 1174.25 216.156V267.398H1147.59V267.42Z" fill="white"/>
<path d="M1225.07 233.869C1225.07 216.499 1238.94 205.208 1258.45 205.208H1280.13C1285.33 205.208 1288.58 202.386 1288.58 197.609C1288.58 192.832 1282.29 185.884 1269.5 185.884C1258.45 185.884 1251.3 191.964 1247.83 199.346L1228.32 186.752C1234.61 173.291 1249.13 162 1269.5 162C1300.07 162 1314.81 183.278 1314.81 203.906V264.267H1289.66V257.319C1285.54 261.878 1276.87 266.655 1263.44 266.655C1239.59 266.655 1225.07 251.891 1225.07 233.869ZM1288.38 226.052V224.75H1263.46C1257.17 224.75 1252.84 228.658 1252.84 234.52C1252.84 240.383 1258.04 244.943 1267.14 244.943C1280.36 244.943 1288.38 236.475 1288.38 226.052Z" fill="white"/>
<g clip-path="url(#clip2_702_30)">
<path d="M1332.59 266.612V166.711H1358.38V174.745C1362.5 169.968 1371.39 164.323 1384.61 164.323C1407.37 164.323 1424.06 181.259 1424.06 203.189V266.612H1396.96V208.834C1396.96 197.978 1390.68 189.293 1378.54 189.293C1367.7 189.293 1359.68 197.326 1359.68 209.92V266.59H1332.59V266.612Z" fill="white"/>
</g>
<g clip-path="url(#clip3_702_30)">
<path d="M1442.62 241.596L1466.25 232.694C1468.41 238.991 1474.05 242.899 1480.99 242.899C1488.57 242.899 1493.12 239.859 1493.12 234.865C1493.12 229.871 1489.01 227.049 1481.42 225.746C1461.26 222.489 1445.65 214.672 1445.65 192.96C1445.65 176.675 1459.09 162.345 1481.64 162.345C1501.14 162.345 1512.63 172.767 1516.53 185.794L1493.77 193.394C1492.26 188.4 1487.92 185.36 1481.64 185.36C1475.35 185.36 1471.67 188.617 1471.67 192.743C1471.67 197.737 1475.78 200.125 1483.37 201.428C1509.6 205.553 1519.79 216.627 1519.79 233.562C1519.79 252.018 1506.13 267 1480.55 267C1458.66 267 1446.74 255.058 1442.62 241.596Z" fill="white"/>
</g>
<g clip-path="url(#clip4_702_30)">
<path d="M444.023 266.612V189.944H425.165V167.797H431.018C438.821 167.797 444.89 163.889 444.89 156.072V151.078C444.89 124.372 463.965 110.258 488.459 110.258H492.795V135.662H489.326C479.139 135.662 471.118 142.176 471.118 154.552V166.711H496.046V189.944H471.118V266.612H444.023Z" fill="white"/>
</g>
<g clip-path="url(#clip5_702_30)">
<path d="M514.982 266.612V166.711H540.343V178.436C545.762 169.534 556.6 165.192 567.872 165.192H575.458V191.03H564.837C549.881 191.03 541.644 200.366 541.644 215.348V266.59H514.982V266.612Z" fill="white"/>
</g>
<g clip-path="url(#clip6_702_30)">
<path d="M593.914 214.672C593.914 186.012 616.673 162.345 648.32 162.345C679.967 162.345 702.727 186.012 702.727 214.672C702.727 243.333 680.184 267 648.32 267C616.457 267 593.914 243.55 593.914 214.672ZM674.57 214.672C674.57 199.908 663.732 188.183 648.342 187.966C632.952 188.183 622.114 199.908 622.114 214.672C622.114 229.437 632.952 241.162 648.342 241.379C663.732 241.162 674.57 229.654 674.57 214.672Z" fill="white"/>
</g>
<g clip-path="url(#clip7_702_30)">
<path d="M720.498 266.612L765.584 190.595H724.399V166.711H808.957L765.172 242.076H806.573V266.612H720.498Z" fill="white"/>
</g>
</g>
<defs>
<filter id="filter0_d_702_30" x="0" y="0" width="1523.81" height="276" filterUnits="userSpaceOnUse" color-interpolation-filters="sRGB">
<feFlood flood-opacity="0" result="BackgroundImageFix"/>
<feColorMatrix in="SourceAlpha" type="matrix" values="0 0 0 0 0 0 0 0 0 0 0 0 0 0 0 0 0 0 127 0" result="hardAlpha"/>
<feOffset dy="4"/>
<feGaussianBlur stdDeviation="2"/>
<feComposite in2="hardAlpha" operator="out"/>
<feColorMatrix type="matrix" values="0 0 0 0 0 0 0 0 0 0 0 0 0 0 0 0 0 0 0.25 0"/>
<feBlend mode="normal" in2="BackgroundImageFix" result="effect1_dropShadow_702_30"/>
<feBlend mode="normal" in="SourceGraphic" in2="effect1_dropShadow_702_30" result="shape"/>
</filter>
<clipPath id="clip0_702_30">
<rect width="168" height="146" fill="white" transform="translate(201 122)"/>
</clipPath>
<clipPath id="clip1_702_30">
<rect width="404" height="267" fill="white" transform="translate(4)"/>
</clipPath>
<clipPath id="clip2_702_30">
<rect width="93" height="103" fill="white" transform="translate(1331.81 164)"/>
</clipPath>
<clipPath id="clip3_702_30">
<rect width="78" height="105" fill="white" transform="translate(1441.81 162)"/>
</clipPath>
<clipPath id="clip4_702_30">
<rect width="72" height="157" fill="white" transform="translate(425 110)"/>
</clipPath>
<clipPath id="clip5_702_30">
<rect width="62" height="102" fill="white" transform="translate(514 165)"/>
</clipPath>
<clipPath id="clip6_702_30">
<rect width="110" height="105" fill="white" transform="translate(593 162)"/>
</clipPath>
<clipPath id="clip7_702_30">
<rect width="89" height="101" fill="white" transform="translate(720 166)"/>
</clipPath>
</defs>
</svg>
