<svg width="404" height="268" viewBox="0 0 404 268" fill="none" xmlns="http://www.w3.org/2000/svg">
<g clip-path="url(#clip0_701_6)">
<path d="M295.228 122.656C249.448 147.127 206.031 209.051 197.252 267.437H364.959C364.959 218.062 343.782 159.134 295.228 122.656Z" fill="white"/>
</g>
<g clip-path="url(#clip1_701_6)">
<path d="M403.912 67.114C403.912 66.7015 403.63 66.3323 403.24 66.2238C383.276 60.2528 364.201 49.3313 350.09 34.0672C344.584 28.118 337.691 20.3882 330.04 20.3014H327.287C327.569 19.0638 327.742 17.8044 327.742 16.5017C327.742 7.38232 320.372 0 311.268 0C302.164 0 294.794 7.38232 294.794 16.5017C294.794 17.7827 294.946 19.0203 295.228 20.1928H294.903C219.297 20.258 114.125 37.8235 58.2873 98.6626C17.3413 143.282 -3.64109 190.117 0.520711 266.545H66.3075C73.1571 220.102 98.0628 200.104 99.0383 199.54C95.4834 214.109 92.4704 238.688 95.1799 266.545L167.274 266.697C191.161 160.392 278.061 88.2622 403.023 88.9787C403.543 88.9787 403.977 88.5662 403.977 88.0451V67.1357L403.912 67.114Z" fill="white"/>
</g>
<defs>
<clipPath id="clip0_701_6">
<rect width="168" height="146" fill="white" transform="translate(197 122)"/>
</clipPath>
<clipPath id="clip1_701_6">
<rect width="404" height="267" fill="white"/>
</clipPath>
</defs>
</svg>
