<svg width="72" height="72" viewBox="0 0 72 72" fill="none" xmlns="http://www.w3.org/2000/svg">
<g id="audi" clip-path="url(#clip0_341_1657)">
<path id="audi_2" fill-rule="evenodd" clip-rule="evenodd" d="M12.7326 24.4504C5.91897 24.4504 0.194194 30.0753 0.309324 36.8767C0.422326 43.5515 5.95403 48.9007 12.7334 48.9007C15.6444 48.9007 18.3254 47.9144 20.4461 46.2602C22.5669 47.9144 25.248 48.9007 28.1592 48.9007C31.0702 48.9007 33.7512 47.9144 35.8719 46.2602C37.9927 47.9144 40.6738 48.9007 43.585 48.9007C46.496 48.9007 49.177 47.9144 51.2977 46.2602C53.4185 47.9144 56.0996 48.9007 59.0108 48.9007C65.7894 48.9007 71.3211 43.5523 71.4341 36.8767C71.5492 30.0748 65.8243 24.4504 59.0104 24.4504C56.1235 24.4504 53.4322 25.46 51.2976 27.1409C49.1627 25.4599 46.471 24.4504 43.5842 24.4504C40.6973 24.4504 38.0061 25.46 35.8716 27.1409C33.737 25.46 31.0456 24.4504 28.1588 24.4504C25.2719 24.4504 22.5805 25.46 20.4459 27.141C18.3112 25.46 15.6196 24.4504 12.7326 24.4504ZM28.1592 46.1262C26.0261 46.1262 24.054 45.4424 22.4584 44.2845C24.107 42.2475 25.1093 39.679 25.1567 36.8767C25.2061 33.9562 24.179 31.2529 22.4513 29.1187C24.0599 27.9324 26.0426 27.2249 28.1588 27.2249C30.2749 27.2249 32.2576 27.9324 33.8661 29.1185C32.1384 31.2529 31.1111 33.9566 31.1601 36.8769C31.2079 39.679 32.2106 42.2475 33.8595 44.2847C32.264 45.4425 30.292 46.1262 28.1592 46.1262ZM22.3429 36.8304C22.379 34.6978 21.6631 32.7077 20.4459 31.0983C19.2287 32.7077 18.5128 34.6978 18.5489 36.8304C18.5837 38.8857 19.284 40.7797 20.4461 42.3143C21.608 40.7798 22.3081 38.8859 22.3429 36.8304ZM15.7351 36.8767C15.6857 33.9563 16.7128 31.253 18.4405 29.1187C16.8318 27.9324 14.8489 27.2249 12.7326 27.2249C7.47133 27.2249 3.0346 31.5992 3.12315 36.8304C3.21043 41.986 7.48467 46.1262 12.7334 46.1262C14.8663 46.1262 16.8383 45.4425 18.4338 44.2846C16.785 42.2474 15.7826 39.6789 15.7351 36.8767ZM40.5825 36.8767C40.6319 33.9563 39.6048 31.2529 37.877 29.1185C39.4855 27.9324 41.4681 27.2249 43.5842 27.2249C45.7005 27.2249 47.6834 27.9324 49.2921 29.1186C47.5644 31.2529 46.5373 33.9563 46.5867 36.8767C46.6341 39.6789 47.6366 42.2474 49.2854 44.2846C47.6899 45.4425 45.7179 46.1262 43.585 46.1262C41.4519 46.1262 39.4798 45.4424 37.8842 44.2846C39.5327 42.2475 40.5351 39.679 40.5825 36.8767ZM49.4005 36.8304C49.3644 34.6977 50.0804 32.7075 51.2977 31.0981C52.515 32.7074 53.2308 34.6977 53.1945 36.8304C53.1597 38.8859 52.4595 40.7798 51.2976 42.3143C50.1355 40.7797 49.4353 38.8857 49.4005 36.8304ZM59.0108 46.1262C56.8777 46.1262 54.9055 45.4424 53.31 44.2845C54.9585 42.2475 55.9608 39.6792 56.0083 36.8769C56.0581 33.9561 55.0309 31.2528 53.3031 29.1185C54.9116 27.9324 56.8943 27.2249 59.0104 27.2249C64.2721 27.2249 68.7088 31.5988 68.6202 36.8304C68.533 41.9868 64.2587 46.1262 59.0108 46.1262ZM37.7685 36.8956C37.8046 34.7629 37.0888 32.7728 35.8716 31.1635C34.6544 32.7728 33.9385 34.7629 33.9746 36.8956C34.0094 38.9509 34.7096 40.8448 35.8717 42.3794C37.0336 40.8449 37.7337 38.951 37.7685 36.8956Z" fill="#050235"/>
</g>
<defs>
<clipPath id="clip0_341_1657">
<rect width="71.1282" height="71.1282" fill="white" transform="translate(0.307617)"/>
</clipPath>
</defs>
</svg>
