<svg width="72" height="72" viewBox="0 0 72 72" fill="none" xmlns="http://www.w3.org/2000/svg">
<g id="intel" clip-path="url(#clip0_341_1661)">
<rect id="dot" x="0.436035" y="20.1332" width="5.62357" height="5.62357" fill="#6059BF"/>
<g id="logo">
<path d="M71.5642 20.1332H65.9303V49.6715H71.5642V20.1332Z" fill="#050235"/>
<path d="M31.8921 21.659H37.526V29.5103H41.0472V34.0817H37.526L37.526 42.3455C37.526 44.9243 39.7365 45.061 40.9885 44.8071V49.7887C33.5243 49.7887 31.8924 47.5035 31.8921 41.1168V21.659Z" fill="#050235"/>
<path d="M14.6382 31.9044C15.8535 30.5545 17.9946 29.0415 20.9763 29.0415C26.0234 29.0415 29.0164 33.3785 29.0164 37.0708V49.6715H23.6172V38.1257C23.5781 36.641 22.6313 33.6715 19.1571 33.6715C16.7572 33.6715 15.3579 35.2562 14.6382 36.7836V49.6714H9.00428V29.5103H14.6382V31.9044Z" fill="#050235"/>
<path d="M0.436035 29.5103H6.06995V49.6714H0.436035V29.5103Z" fill="#050235"/>
<path fill-rule="evenodd" clip-rule="evenodd" d="M47.4574 41.4663H63.5828V39.5908C63.5828 33.7646 58.8533 29.0415 53.0192 29.0415C47.1851 29.0415 42.4556 33.7647 42.4556 39.5909C42.4556 45.4172 47.1851 50.1403 53.0192 50.1403C56.4426 50.1403 59.486 48.5115 61.4125 45.9972L57.6839 43.148C56.6075 44.5528 54.919 45.4517 53.0192 45.4517C50.4348 45.4517 48.2405 43.7834 47.4574 41.4663ZM58.5399 37.5982C57.7233 35.3423 55.5598 33.7301 53.0192 33.7301C50.4787 33.7301 48.3151 35.3423 47.4985 37.5982H58.5399Z" fill="#050235"/>
</g>
</g>
<defs>
<clipPath id="clip0_341_1661">
<rect width="71.1282" height="71.1282" fill="white" transform="translate(0.436035 0.128174)"/>
</clipPath>
</defs>
</svg>
