<svg width="72" height="72" viewBox="0 0 72 72" fill="none" xmlns="http://www.w3.org/2000/svg">
<g id="kia" clip-path="url(#clip0_341_1659)">
<path id="Layer" d="M41.8371 40.866C41.8371 40.9998 41.8728 41.0712 41.9533 41.0712C42.0159 41.0712 42.0696 41.0444 42.1321 41.0087L64.2887 27.2262C64.6821 26.9764 65.0308 26.8426 65.5673 26.8426H70.4403C71.1914 26.8426 71.6921 27.3243 71.6921 28.0469V36.9409C71.6921 38.0114 71.4507 38.6358 70.4403 39.2157L64.5301 42.6056C64.4586 42.6591 64.3871 42.6769 64.3334 42.6769C64.2619 42.6769 64.1993 42.6323 64.1993 42.4361V32.0434C64.1993 31.9274 64.1635 31.8382 64.0741 31.8382C64.0115 31.8382 63.9668 31.865 63.9042 31.9007L47.7026 41.9722C47.2466 42.2577 46.88 42.3379 46.4597 42.3379H35.7123C34.9701 42.3379 34.4605 41.8562 34.4605 41.1426V28.3234C34.4605 28.2342 34.4158 28.1539 34.3443 28.1539C34.2817 28.1539 34.228 28.1718 34.1654 28.2075L23.4806 34.3539C23.3733 34.4163 23.3464 34.4788 23.3464 34.5234C23.3464 34.568 23.3643 34.6036 23.4448 34.675L31.0717 41.9722C31.1701 42.0703 31.2416 42.1506 31.2416 42.222C31.2416 42.3023 31.1343 42.3469 31.0002 42.3469H24.0975C23.561 42.3469 23.1408 42.2666 22.8457 41.99L18.2141 37.5564C18.1605 37.5029 18.1247 37.4851 18.08 37.4851C18.0269 37.4897 17.9752 37.5049 17.928 37.5297L10.1938 41.99C9.72881 42.2577 9.40693 42.3379 8.94198 42.3379H1.81575C1.06468 42.3379 0.563965 41.8562 0.563965 41.1426V32.4091C0.563965 31.3208 0.80538 30.7142 1.81575 30.1343L7.76172 26.7177C7.82431 26.682 7.86902 26.6731 7.92267 26.6731C8.00314 26.6731 8.05679 26.7623 8.05679 26.9496V38.6358C8.05679 38.7518 8.09255 38.8142 8.18197 38.8142C8.22667 38.8142 8.28926 38.7786 8.35185 38.7429L28.434 27.1905C28.9079 26.914 29.203 26.8337 29.7574 26.8337H40.5674C41.3185 26.8337 41.8192 27.3154 41.8192 28.0291L41.8371 40.866Z" fill="#050235"/>
</g>
<defs>
<clipPath id="clip0_341_1659">
<rect width="71.1282" height="71.1282" fill="white" transform="translate(0.563965)"/>
</clipPath>
</defs>
</svg>
